<?xml version="1.0" standalone="no"?>
<!DOCTYPE svg PUBLIC "-//W3C//DTD SVG 20010904//EN"
 "http://www.w3.org/TR/2001/REC-SVG-20010904/DTD/svg10.dtd">
<svg version="1.0" xmlns="http://www.w3.org/2000/svg"
 width="235.000000pt" height="235.000000pt" viewBox="0 0 235.000000 235.000000"
 preserveAspectRatio="xMidYMid meet">
<metadata>
Created by potrace 1.14, written by Peter Selinger 2001-2017
</metadata>
<g transform="translate(0.000000,235.000000) scale(0.100000,-0.100000)"
fill="#000000" stroke="none">
<path d="M1080 2213 c-25 -13 -81 -45 -125 -71 -44 -25 -105 -59 -135 -76 -30
-16 -120 -67 -199 -113 -79 -46 -146 -83 -149 -83 -2 0 -16 -8 -30 -18 -15
-11 -57 -36 -95 -56 -120 -65 -107 4 -107 -584 l0 -513 24 -22 c13 -12 41 -31
62 -42 22 -11 77 -43 124 -71 47 -28 186 -111 310 -184 124 -73 258 -153 297
-176 40 -24 81 -44 92 -44 11 0 46 15 78 33 32 19 225 127 428 242 204 114
378 216 388 227 16 19 17 59 17 529 l0 509 -24 21 c-26 23 -49 36 -528 320
-192 114 -346 199 -360 198 -12 0 -43 -12 -68 -26z"/>
</g>
</svg>
